<svg xmlns="http://www.w3.org/2000/svg" width="1654" height="301.5" viewBox="0 0 1654 301.5">
  <g id="Group_381" data-name="Group 381" transform="translate(-133.5 -82)">
    <line id="Line_348" data-name="Line 348" x1="100" transform="translate(136 202.5)" fill="none" stroke="#c13e3e" stroke-width="3"/>
    <line id="Line_349" data-name="Line 349" x1="40" transform="translate(196 262.5)" fill="none" stroke="#c13e3e" stroke-width="3"/>
    <line id="Line_350" data-name="Line 350" y1="60" transform="translate(196 261)" fill="none" stroke="#c13e3e" stroke-width="3"/>
    <line id="Line_351" data-name="Line 351" y1="180" transform="translate(135 201)" fill="none" stroke="#c13e3e" stroke-width="3"/>
    <line id="Line_352" data-name="Line 352" x1="100" transform="translate(136 379.5)" fill="none" stroke="#c13e3e" stroke-width="3"/>
    <line id="Line_353" data-name="Line 353" x1="40" transform="translate(196 319.5)" fill="none" stroke="#c13e3e" stroke-width="3"/>
    <line id="Line_330" data-name="Line 330" x2="160" transform="translate(1363 203)" fill="none" stroke="#c13e3e" stroke-width="3"/>
    <line id="Line_331" data-name="Line 331" x2="160" transform="translate(1363 263)" fill="none" stroke="#c13e3e" stroke-width="3"/>
    <line id="Line_332" data-name="Line 332" x2="160" transform="translate(236 203)" fill="none" stroke="#c13e3e" stroke-width="3"/>
    <line id="Line_333" data-name="Line 333" x2="160" transform="translate(397 203)" fill="none" stroke="#c13e3e" stroke-width="3"/>
    <rect id="Rectangle_785" data-name="Rectangle 785" width="16" height="40" rx="2" transform="translate(389 213)" fill="#c13e3e"/>
    <g id="Rectangle_786" data-name="Rectangle 786" transform="translate(393 199)" fill="#fff" stroke="#707070" stroke-width="1">
      <rect width="8" height="8" rx="2" stroke="none"/>
      <rect x="0.5" y="0.5" width="7" height="7" rx="1.5" fill="none"/>
    </g>
    <rect id="Rectangle_787" data-name="Rectangle 787" width="16" height="40" rx="2" transform="translate(228 213)" fill="#c13e3e"/>
    <g id="Rectangle_788" data-name="Rectangle 788" transform="translate(232 199)" fill="#fff" stroke="#707070" stroke-width="1">
      <rect width="8" height="8" rx="2" stroke="none"/>
      <rect x="0.5" y="0.5" width="7" height="7" rx="1.5" fill="none"/>
    </g>
    <text id="Toa_Payoh" data-name="Toa Payoh" transform="translate(250 249)" fill="#a8a8a8" font-size="14" font-family="SegoeUI-Semibold, Segoe UI" font-weight="600"><tspan x="0" y="0">Toa Payoh</tspan></text>
    <text id="NS19" transform="translate(250 231)" font-size="20" font-family="SegoeUI-Semibold, Segoe UI" font-weight="600"><tspan x="0" y="0">NS19</tspan></text>
    <text id="Bradell" transform="translate(411 249)" fill="#a8a8a8" font-size="14" font-family="SegoeUI-Semibold, Segoe UI" font-weight="600"><tspan x="0" y="0">Bradell</tspan></text>
    <text id="NS18" transform="translate(411 231)" font-size="20" font-family="SegoeUI-Semibold, Segoe UI" font-weight="600"><tspan x="0" y="0">NS18</tspan></text>
    <line id="Line_334" data-name="Line 334" x2="160" transform="translate(558 203)" fill="none" stroke="#c13e3e" stroke-width="3"/>
    <rect id="Rectangle_789" data-name="Rectangle 789" width="16" height="40" rx="2" transform="translate(550 213)" fill="#c13e3e"/>
    <g id="Rectangle_790" data-name="Rectangle 790" transform="translate(554 199)" fill="#fff" stroke="#707070" stroke-width="1">
      <rect width="8" height="8" rx="2" stroke="none"/>
      <rect x="0.5" y="0.5" width="7" height="7" rx="1.5" fill="none"/>
    </g>
    <text id="Bishan" transform="translate(572 249)" fill="#a8a8a8" font-size="14" font-family="SegoeUI-Semibold, Segoe UI" font-weight="600"><tspan x="0" y="0">Bishan</tspan></text>
    <text id="NS17" transform="translate(572 231)" font-size="20" font-family="SegoeUI-Semibold, Segoe UI" font-weight="600"><tspan x="0" y="0">NS17</tspan></text>
    <line id="Line_335" data-name="Line 335" x2="160" transform="translate(719 203)" fill="none" stroke="#c13e3e" stroke-width="3"/>
    <rect id="Rectangle_791" data-name="Rectangle 791" width="16" height="40" rx="2" transform="translate(711 213)" fill="#c13e3e"/>
    <g id="Rectangle_792" data-name="Rectangle 792" transform="translate(715 199)" fill="#fff" stroke="#707070" stroke-width="1">
      <rect width="8" height="8" rx="2" stroke="none"/>
      <rect x="0.5" y="0.5" width="7" height="7" rx="1.5" fill="none"/>
    </g>
    <text id="Ang_Mo_Kio" data-name="Ang Mo Kio" transform="translate(733 249)" fill="#a8a8a8" font-size="14" font-family="SegoeUI-Semibold, Segoe UI" font-weight="600"><tspan x="0" y="0">Ang Mo Kio</tspan></text>
    <text id="NS16" transform="translate(733 231)" font-size="20" font-family="SegoeUI-Semibold, Segoe UI" font-weight="600"><tspan x="0" y="0">NS16</tspan></text>
    <line id="Line_336" data-name="Line 336" x2="160" transform="translate(880 203)" fill="none" stroke="#c13e3e" stroke-width="3"/>
    <rect id="Rectangle_793" data-name="Rectangle 793" width="16" height="40" rx="2" transform="translate(872 213)" fill="#c13e3e"/>
    <g id="Rectangle_794" data-name="Rectangle 794" transform="translate(876 199)" fill="#fff" stroke="#707070" stroke-width="1">
      <rect width="8" height="8" rx="2" stroke="none"/>
      <rect x="0.5" y="0.5" width="7" height="7" rx="1.5" fill="none"/>
    </g>
    <text id="Yio_Chu_Kang" data-name="Yio Chu Kang" transform="translate(894 249)" fill="#a8a8a8" font-size="14" font-family="SegoeUI-Semibold, Segoe UI" font-weight="600"><tspan x="0" y="0">Yio Chu Kang</tspan></text>
    <text id="NS15" transform="translate(894 231)" font-size="20" font-family="SegoeUI-Semibold, Segoe UI" font-weight="600"><tspan x="0" y="0">NS15</tspan></text>
    <line id="Line_337" data-name="Line 337" x2="160" transform="translate(1041 203)" fill="none" stroke="#c13e3e" stroke-width="3"/>
    <g id="Rectangle_795" data-name="Rectangle 795" transform="translate(1037 199)" fill="#fff" stroke="#707070" stroke-width="1">
      <rect width="8" height="8" rx="2" stroke="none"/>
      <rect x="0.5" y="0.5" width="7" height="7" rx="1.5" fill="none"/>
    </g>
    <rect id="Rectangle_796" data-name="Rectangle 796" width="16" height="40" rx="2" transform="translate(1033 213)" fill="#c13e3e"/>
    <text id="Khatib" transform="translate(1055 249)" fill="#a8a8a8" font-size="14" font-family="SegoeUI-Semibold, Segoe UI" font-weight="600"><tspan x="0" y="0">Khatib</tspan></text>
    <text id="NS14" transform="translate(1055 231)" font-size="20" font-family="SegoeUI-Semibold, Segoe UI" font-weight="600"><tspan x="0" y="0">NS14</tspan></text>
    <line id="Line_338" data-name="Line 338" x2="160" transform="translate(236 263)" fill="none" stroke="#c13e3e" stroke-width="3"/>
    <line id="Line_339" data-name="Line 339" x2="160" transform="translate(397 263)" fill="none" stroke="#c13e3e" stroke-width="3"/>
    <g id="Rectangle_797" data-name="Rectangle 797" transform="translate(393 259)" fill="#fff" stroke="#707070" stroke-width="1">
      <rect width="8" height="8" rx="2" stroke="none"/>
      <rect x="0.5" y="0.5" width="7" height="7" rx="1.5" fill="none"/>
    </g>
    <g id="Rectangle_798" data-name="Rectangle 798" transform="translate(232 259)" fill="#fff" stroke="#707070" stroke-width="1">
      <rect width="8" height="8" rx="2" stroke="none"/>
      <rect x="0.5" y="0.5" width="7" height="7" rx="1.5" fill="none"/>
    </g>
    <line id="Line_340" data-name="Line 340" x2="160" transform="translate(558 263)" fill="none" stroke="#c13e3e" stroke-width="3"/>
    <g id="Rectangle_799" data-name="Rectangle 799" transform="translate(554 259)" fill="#fff" stroke="#707070" stroke-width="1">
      <rect width="8" height="8" rx="2" stroke="none"/>
      <rect x="0.5" y="0.5" width="7" height="7" rx="1.5" fill="none"/>
    </g>
    <line id="Line_341" data-name="Line 341" x2="160" transform="translate(719 263)" fill="none" stroke="#c13e3e" stroke-width="3"/>
    <g id="Rectangle_800" data-name="Rectangle 800" transform="translate(715 259)" fill="#fff" stroke="#707070" stroke-width="1">
      <rect width="8" height="8" rx="2" stroke="none"/>
      <rect x="0.5" y="0.5" width="7" height="7" rx="1.5" fill="none"/>
    </g>
    <line id="Line_342" data-name="Line 342" x2="160" transform="translate(880 263)" fill="none" stroke="#c13e3e" stroke-width="3"/>
    <g id="Rectangle_801" data-name="Rectangle 801" transform="translate(876 259)" fill="#fff" stroke="#707070" stroke-width="1">
      <rect width="8" height="8" rx="2" stroke="none"/>
      <rect x="0.5" y="0.5" width="7" height="7" rx="1.5" fill="none"/>
    </g>
    <line id="Line_343" data-name="Line 343" x2="160" transform="translate(1041 263)" fill="none" stroke="#c13e3e" stroke-width="3"/>
    <g id="Rectangle_802" data-name="Rectangle 802" transform="translate(1037 259)" fill="#fff" stroke="#707070" stroke-width="1">
      <rect width="8" height="8" rx="2" stroke="none"/>
      <rect x="0.5" y="0.5" width="7" height="7" rx="1.5" fill="none"/>
    </g>
    <line id="Line_344" data-name="Line 344" x2="160" transform="translate(1202 203)" fill="none" stroke="#c13e3e" stroke-width="3"/>
    <g id="Rectangle_803" data-name="Rectangle 803" transform="translate(1198 199)" fill="#fff" stroke="#707070" stroke-width="1">
      <rect width="8" height="8" rx="2" stroke="none"/>
      <rect x="0.5" y="0.5" width="7" height="7" rx="1.5" fill="none"/>
    </g>
    <rect id="Rectangle_804" data-name="Rectangle 804" width="16" height="40" rx="2" transform="translate(1194 213)" fill="#c13e3e"/>
    <text id="Yishun" transform="translate(1216 249)" fill="#a8a8a8" font-size="14" font-family="SegoeUI-Semibold, Segoe UI" font-weight="600"><tspan x="0" y="0">Yishun</tspan></text>
    <text id="NS13" transform="translate(1216 231)" font-size="20" font-family="SegoeUI-Semibold, Segoe UI" font-weight="600"><tspan x="0" y="0">NS13</tspan></text>
    <line id="Line_345" data-name="Line 345" x2="160" transform="translate(1202 263)" fill="none" stroke="#c13e3e" stroke-width="3"/>
    <g id="Rectangle_805" data-name="Rectangle 805" transform="translate(1198 259)" fill="#fff" stroke="#707070" stroke-width="1">
      <rect width="8" height="8" rx="2" stroke="none"/>
      <rect x="0.5" y="0.5" width="7" height="7" rx="1.5" fill="none"/>
    </g>
    <g id="Rectangle_806" data-name="Rectangle 806" transform="translate(1359 199)" fill="#fff" stroke="#707070" stroke-width="1">
      <rect width="8" height="8" rx="2" stroke="none"/>
      <rect x="0.5" y="0.5" width="7" height="7" rx="1.5" fill="none"/>
    </g>
    <rect id="Rectangle_807" data-name="Rectangle 807" width="16" height="40" rx="2" transform="translate(1355 213)" fill="#c13e3e"/>
    <text id="Canberra" transform="translate(1377 249)" fill="#a8a8a8" font-size="14" font-family="SegoeUI-Semibold, Segoe UI" font-weight="600"><tspan x="0" y="0">Canberra</tspan></text>
    <text id="NS12" transform="translate(1377 231)" font-size="20" font-family="SegoeUI-Semibold, Segoe UI" font-weight="600"><tspan x="0" y="0">NS12</tspan></text>
    <g id="Rectangle_808" data-name="Rectangle 808" transform="translate(1359 259)" fill="#fff" stroke="#707070" stroke-width="1">
      <rect width="8" height="8" rx="2" stroke="none"/>
      <rect x="0.5" y="0.5" width="7" height="7" rx="1.5" fill="none"/>
    </g>
    <line id="Line_346" data-name="Line 346" x2="160" transform="translate(1524 203)" fill="none" stroke="#c13e3e" stroke-width="3"/>
    <line id="Line_347" data-name="Line 347" x2="160" transform="translate(1524 263)" fill="none" stroke="#c13e3e" stroke-width="3"/>
    <g id="Rectangle_809" data-name="Rectangle 809" transform="translate(1520 199)" fill="#fff" stroke="#707070" stroke-width="1">
      <rect width="8" height="8" rx="2" stroke="none"/>
      <rect x="0.5" y="0.5" width="7" height="7" rx="1.5" fill="none"/>
    </g>
    <rect id="Rectangle_810" data-name="Rectangle 810" width="16" height="40" rx="2" transform="translate(1516 213)" fill="#c13e3e"/>
    <text id="Sembawang" transform="translate(1538 249)" fill="#a8a8a8" font-size="14" font-family="SegoeUI-Semibold, Segoe UI" font-weight="600"><tspan x="0" y="0">Sembawang</tspan></text>
    <text id="NS11" transform="translate(1538 231)" font-size="20" font-family="SegoeUI-Semibold, Segoe UI" font-weight="600"><tspan x="0" y="0">NS11</tspan></text>
    <g id="Rectangle_811" data-name="Rectangle 811" transform="translate(1520 259)" fill="#fff" stroke="#707070" stroke-width="1">
      <rect width="8" height="8" rx="2" stroke="none"/>
      <rect x="0.5" y="0.5" width="7" height="7" rx="1.5" fill="none"/>
    </g>
    <line id="Line_325" data-name="Line 325" x2="100" transform="translate(1685 86)" fill="none" stroke="#c13e3e" stroke-width="3"/>
    <line id="Line_326" data-name="Line 326" x2="40" transform="translate(1685 146)" fill="none" stroke="#c13e3e" stroke-width="3"/>
    <line id="Line_320" data-name="Line 320" x2="160" transform="translate(1363 86)" fill="none" stroke="#c13e3e" stroke-width="3"/>
    <line id="Line_321" data-name="Line 321" x2="160" transform="translate(1363 146)" fill="none" stroke="#c13e3e" stroke-width="3"/>
    <line id="Line_183" data-name="Line 183" x2="160" transform="translate(236 86)" fill="none" stroke="#c13e3e" stroke-width="3"/>
    <line id="Line_184" data-name="Line 184" x2="160" transform="translate(397 86)" fill="none" stroke="#c13e3e" stroke-width="3"/>
    <line id="Line_185" data-name="Line 185" x2="60" transform="translate(176 86)" fill="none" stroke="#c13e3e" stroke-width="3"/>
    <rect id="Rectangle_611" data-name="Rectangle 611" width="16" height="40" rx="2" transform="translate(389 96)" fill="#c13e3e"/>
    <g id="Rectangle_612" data-name="Rectangle 612" transform="translate(393 82)" fill="#fff" stroke="#707070" stroke-width="1">
      <rect width="8" height="8" rx="2" stroke="none"/>
      <rect x="0.5" y="0.5" width="7" height="7" rx="1.5" fill="none"/>
    </g>
    <rect id="Rectangle_613" data-name="Rectangle 613" width="16" height="40" rx="2" transform="translate(228 96)" fill="#c13e3e"/>
    <g id="Rectangle_614" data-name="Rectangle 614" transform="translate(232 82)" fill="#fff" stroke="#707070" stroke-width="1">
      <rect width="8" height="8" rx="2" stroke="none"/>
      <rect x="0.5" y="0.5" width="7" height="7" rx="1.5" fill="none"/>
    </g>
    <text id="Jurong_East" data-name="Jurong East" transform="translate(250 132)" fill="#a8a8a8" font-size="14" font-family="SegoeUI-Semibold, Segoe UI" font-weight="600"><tspan x="0" y="0">Jurong East</tspan></text>
    <text id="NS1" transform="translate(250 114)" font-size="20" font-family="SegoeUI-Semibold, Segoe UI" font-weight="600"><tspan x="0" y="0">NS1</tspan></text>
    <text id="Bukit_Batok" data-name="Bukit Batok" transform="translate(411 132)" fill="#a8a8a8" font-size="14" font-family="SegoeUI-Semibold, Segoe UI" font-weight="600"><tspan x="0" y="0">Bukit Batok</tspan></text>
    <text id="NS2" transform="translate(411 114)" font-size="20" font-family="SegoeUI-Semibold, Segoe UI" font-weight="600"><tspan x="0" y="0">NS2</tspan></text>
    <line id="Line_186" data-name="Line 186" x2="160" transform="translate(558 86)" fill="none" stroke="#c13e3e" stroke-width="3"/>
    <rect id="Rectangle_615" data-name="Rectangle 615" width="16" height="40" rx="2" transform="translate(550 96)" fill="#c13e3e"/>
    <g id="Rectangle_616" data-name="Rectangle 616" transform="translate(554 82)" fill="#fff" stroke="#707070" stroke-width="1">
      <rect width="8" height="8" rx="2" stroke="none"/>
      <rect x="0.5" y="0.5" width="7" height="7" rx="1.5" fill="none"/>
    </g>
    <text id="Bukit_Gombak" data-name="Bukit Gombak" transform="translate(572 132)" fill="#a8a8a8" font-size="14" font-family="SegoeUI-Semibold, Segoe UI" font-weight="600"><tspan x="0" y="0">Bukit Gombak</tspan></text>
    <text id="NS3" transform="translate(572 114)" font-size="20" font-family="SegoeUI-Semibold, Segoe UI" font-weight="600"><tspan x="0" y="0">NS3</tspan></text>
    <line id="Line_187" data-name="Line 187" x2="160" transform="translate(719 86)" fill="none" stroke="#c13e3e" stroke-width="3"/>
    <rect id="Rectangle_617" data-name="Rectangle 617" width="16" height="40" rx="2" transform="translate(711 96)" fill="#c13e3e"/>
    <g id="Rectangle_618" data-name="Rectangle 618" transform="translate(715 82)" fill="#fff" stroke="#707070" stroke-width="1">
      <rect width="8" height="8" rx="2" stroke="none"/>
      <rect x="0.5" y="0.5" width="7" height="7" rx="1.5" fill="none"/>
    </g>
    <text id="Bricklands" transform="translate(733 132)" fill="#a8a8a8" font-size="14" font-family="SegoeUI-Semibold, Segoe UI" font-weight="600"><tspan x="0" y="0">Bricklands</tspan></text>
    <text id="NS3A" transform="translate(733 114)" font-size="20" font-family="SegoeUI-Semibold, Segoe UI" font-weight="600"><tspan x="0" y="0">NS3A</tspan></text>
    <line id="Line_188" data-name="Line 188" x2="160" transform="translate(880 86)" fill="none" stroke="#c13e3e" stroke-width="3"/>
    <rect id="Rectangle_619" data-name="Rectangle 619" width="16" height="40" rx="2" transform="translate(872 96)" fill="#c13e3e"/>
    <g id="Rectangle_620" data-name="Rectangle 620" transform="translate(876 82)" fill="#fff" stroke="#707070" stroke-width="1">
      <rect width="8" height="8" rx="2" stroke="none"/>
      <rect x="0.5" y="0.5" width="7" height="7" rx="1.5" fill="none"/>
    </g>
    <text id="Choa_Chu_Kang" data-name="Choa Chu Kang" transform="translate(894 132)" fill="#a8a8a8" font-size="14" font-family="SegoeUI-Semibold, Segoe UI" font-weight="600"><tspan x="0" y="0">Choa Chu Kang</tspan></text>
    <text id="NS4" transform="translate(894 114)" font-size="20" font-family="SegoeUI-Semibold, Segoe UI" font-weight="600"><tspan x="0" y="0">NS4</tspan></text>
    <line id="Line_189" data-name="Line 189" x2="160" transform="translate(1041 86)" fill="none" stroke="#c13e3e" stroke-width="3"/>
    <g id="Rectangle_622" data-name="Rectangle 622" transform="translate(1037 82)" fill="#fff" stroke="#707070" stroke-width="1">
      <rect width="8" height="8" rx="2" stroke="none"/>
      <rect x="0.5" y="0.5" width="7" height="7" rx="1.5" fill="none"/>
    </g>
    <rect id="Rectangle_621" data-name="Rectangle 621" width="16" height="40" rx="2" transform="translate(1033 96)" fill="#c13e3e"/>
    <text id="Yew_Tee" data-name="Yew Tee" transform="translate(1055 132)" fill="#a8a8a8" font-size="14" font-family="SegoeUI-Semibold, Segoe UI" font-weight="600"><tspan x="0" y="0">Yew Tee</tspan></text>
    <text id="NS5" transform="translate(1055 114)" font-size="20" font-family="SegoeUI-Semibold, Segoe UI" font-weight="600"><tspan x="0" y="0">NS5</tspan></text>
    <line id="Line_190" data-name="Line 190" x2="160" transform="translate(236 146)" fill="none" stroke="#c13e3e" stroke-width="3"/>
    <line id="Line_191" data-name="Line 191" x2="160" transform="translate(397 146)" fill="none" stroke="#c13e3e" stroke-width="3"/>
    <line id="Line_192" data-name="Line 192" x2="60" transform="translate(176 146)" fill="none" stroke="#c13e3e" stroke-width="3"/>
    <g id="Rectangle_623" data-name="Rectangle 623" transform="translate(393 142)" fill="#fff" stroke="#707070" stroke-width="1">
      <rect width="8" height="8" rx="2" stroke="none"/>
      <rect x="0.5" y="0.5" width="7" height="7" rx="1.5" fill="none"/>
    </g>
    <g id="Rectangle_624" data-name="Rectangle 624" transform="translate(232 142)" fill="#fff" stroke="#707070" stroke-width="1">
      <rect width="8" height="8" rx="2" stroke="none"/>
      <rect x="0.5" y="0.5" width="7" height="7" rx="1.5" fill="none"/>
    </g>
    <line id="Line_193" data-name="Line 193" x2="160" transform="translate(558 146)" fill="none" stroke="#c13e3e" stroke-width="3"/>
    <g id="Rectangle_625" data-name="Rectangle 625" transform="translate(554 142)" fill="#fff" stroke="#707070" stroke-width="1">
      <rect width="8" height="8" rx="2" stroke="none"/>
      <rect x="0.5" y="0.5" width="7" height="7" rx="1.5" fill="none"/>
    </g>
    <line id="Line_194" data-name="Line 194" x2="160" transform="translate(719 146)" fill="none" stroke="#c13e3e" stroke-width="3"/>
    <g id="Rectangle_626" data-name="Rectangle 626" transform="translate(715 142)" fill="#fff" stroke="#707070" stroke-width="1">
      <rect width="8" height="8" rx="2" stroke="none"/>
      <rect x="0.5" y="0.5" width="7" height="7" rx="1.5" fill="none"/>
    </g>
    <line id="Line_195" data-name="Line 195" x2="160" transform="translate(880 146)" fill="none" stroke="#c13e3e" stroke-width="3"/>
    <g id="Rectangle_627" data-name="Rectangle 627" transform="translate(876 142)" fill="#fff" stroke="#707070" stroke-width="1">
      <rect width="8" height="8" rx="2" stroke="none"/>
      <rect x="0.5" y="0.5" width="7" height="7" rx="1.5" fill="none"/>
    </g>
    <line id="Line_196" data-name="Line 196" x2="160" transform="translate(1041 146)" fill="none" stroke="#c13e3e" stroke-width="3"/>
    <g id="Rectangle_628" data-name="Rectangle 628" transform="translate(1037 142)" fill="#fff" stroke="#707070" stroke-width="1">
      <rect width="8" height="8" rx="2" stroke="none"/>
      <rect x="0.5" y="0.5" width="7" height="7" rx="1.5" fill="none"/>
    </g>
    <line id="Line_197" data-name="Line 197" x2="160" transform="translate(1202 86)" fill="none" stroke="#c13e3e" stroke-width="3"/>
    <g id="Rectangle_629" data-name="Rectangle 629" transform="translate(1198 82)" fill="#fff" stroke="#707070" stroke-width="1">
      <rect width="8" height="8" rx="2" stroke="none"/>
      <rect x="0.5" y="0.5" width="7" height="7" rx="1.5" fill="none"/>
    </g>
    <rect id="Rectangle_630" data-name="Rectangle 630" width="16" height="40" rx="2" transform="translate(1194 96)" fill="#c13e3e"/>
    <text id="Sungei_Gadut" data-name="Sungei Gadut" transform="translate(1216 132)" fill="#a8a8a8" font-size="14" font-family="SegoeUI-Semibold, Segoe UI" font-weight="600"><tspan x="0" y="0">Sungei Gadut</tspan></text>
    <text id="NS6" transform="translate(1216 114)" font-size="20" font-family="SegoeUI-Semibold, Segoe UI" font-weight="600"><tspan x="0" y="0">NS6</tspan></text>
    <line id="Line_198" data-name="Line 198" x2="160" transform="translate(1202 146)" fill="none" stroke="#c13e3e" stroke-width="3"/>
    <g id="Rectangle_631" data-name="Rectangle 631" transform="translate(1198 142)" fill="#fff" stroke="#707070" stroke-width="1">
      <rect width="8" height="8" rx="2" stroke="none"/>
      <rect x="0.5" y="0.5" width="7" height="7" rx="1.5" fill="none"/>
    </g>
    <g id="Rectangle_632" data-name="Rectangle 632" transform="translate(1359 82)" fill="#fff" stroke="#707070" stroke-width="1">
      <rect width="8" height="8" rx="2" stroke="none"/>
      <rect x="0.5" y="0.5" width="7" height="7" rx="1.5" fill="none"/>
    </g>
    <rect id="Rectangle_633" data-name="Rectangle 633" width="16" height="40" rx="2" transform="translate(1355 96)" fill="#c13e3e"/>
    <text id="Kranji" transform="translate(1377 132)" fill="#a8a8a8" font-size="14" font-family="SegoeUI-Semibold, Segoe UI" font-weight="600"><tspan x="0" y="0">Kranji</tspan></text>
    <text id="NS7" transform="translate(1377 114)" font-size="20" font-family="SegoeUI-Semibold, Segoe UI" font-weight="600"><tspan x="0" y="0">NS7</tspan></text>
    <g id="Rectangle_634" data-name="Rectangle 634" transform="translate(1359 142)" fill="#fff" stroke="#707070" stroke-width="1">
      <rect width="8" height="8" rx="2" stroke="none"/>
      <rect x="0.5" y="0.5" width="7" height="7" rx="1.5" fill="none"/>
    </g>
    <line id="Line_322" data-name="Line 322" x2="160" transform="translate(1524 86)" fill="none" stroke="#c13e3e" stroke-width="3"/>
    <line id="Line_323" data-name="Line 323" x2="160" transform="translate(1524 146)" fill="none" stroke="#c13e3e" stroke-width="3"/>
    <g id="Rectangle_776" data-name="Rectangle 776" transform="translate(1520 82)" fill="#fff" stroke="#707070" stroke-width="1">
      <rect width="8" height="8" rx="2" stroke="none"/>
      <rect x="0.5" y="0.5" width="7" height="7" rx="1.5" fill="none"/>
    </g>
    <rect id="Rectangle_777" data-name="Rectangle 777" width="16" height="40" rx="2" transform="translate(1516 96)" fill="#c13e3e"/>
    <text id="Marsiling" transform="translate(1538 132)" fill="#a8a8a8" font-size="14" font-family="SegoeUI-Semibold, Segoe UI" font-weight="600"><tspan x="0" y="0">Marsiling</tspan></text>
    <text id="NS8" transform="translate(1538 114)" font-size="20" font-family="SegoeUI-Semibold, Segoe UI" font-weight="600"><tspan x="0" y="0">NS8</tspan></text>
    <g id="Rectangle_778" data-name="Rectangle 778" transform="translate(1520 142)" fill="#fff" stroke="#707070" stroke-width="1">
      <rect width="8" height="8" rx="2" stroke="none"/>
      <rect x="0.5" y="0.5" width="7" height="7" rx="1.5" fill="none"/>
    </g>
    <g id="Rectangle_779" data-name="Rectangle 779" transform="translate(1681 82)" fill="#fff" stroke="#707070" stroke-width="1">
      <rect width="8" height="8" rx="2" stroke="none"/>
      <rect x="0.5" y="0.5" width="7" height="7" rx="1.5" fill="none"/>
    </g>
    <rect id="Rectangle_780" data-name="Rectangle 780" width="16" height="40" rx="2" transform="translate(1677 96)" fill="#c13e3e"/>
    <text id="Woodlands" transform="translate(1699 132)" fill="#a8a8a8" font-size="14" font-family="SegoeUI-Semibold, Segoe UI" font-weight="600"><tspan x="0" y="0">Woodlands</tspan></text>
    <text id="NS9" transform="translate(1699 114)" font-size="20" font-family="SegoeUI-Semibold, Segoe UI" font-weight="600"><tspan x="0" y="0">NS9</tspan></text>
    <g id="Rectangle_781" data-name="Rectangle 781" transform="translate(1681 142)" fill="#fff" stroke="#707070" stroke-width="1">
      <rect width="8" height="8" rx="2" stroke="none"/>
      <rect x="0.5" y="0.5" width="7" height="7" rx="1.5" fill="none"/>
    </g>
    <line id="Line_324" data-name="Line 324" y1="60" transform="translate(1725 144.5)" fill="none" stroke="#c13e3e" stroke-width="3"/>
    <line id="Line_327" data-name="Line 327" y1="180" transform="translate(1786 84.5)" fill="none" stroke="#c13e3e" stroke-width="3"/>
    <line id="Line_328" data-name="Line 328" x2="100" transform="translate(1685 263)" fill="none" stroke="#c13e3e" stroke-width="3"/>
    <line id="Line_329" data-name="Line 329" x2="40" transform="translate(1685 203)" fill="none" stroke="#c13e3e" stroke-width="3"/>
    <g id="Rectangle_782" data-name="Rectangle 782" transform="translate(1681 199)" fill="#fff" stroke="#707070" stroke-width="1">
      <rect width="8" height="8" rx="2" stroke="none"/>
      <rect x="0.5" y="0.5" width="7" height="7" rx="1.5" fill="none"/>
    </g>
    <rect id="Rectangle_783" data-name="Rectangle 783" width="16" height="40" rx="2" transform="translate(1677 213)" fill="#c13e3e"/>
    <text id="Admirality" transform="translate(1699 249)" fill="#a8a8a8" font-size="14" font-family="SegoeUI-Semibold, Segoe UI" font-weight="600"><tspan x="0" y="0">Admirality</tspan></text>
    <text id="NS10" transform="translate(1699 231)" font-size="20" font-family="SegoeUI-Semibold, Segoe UI" font-weight="600"><tspan x="0" y="0">NS10</tspan></text>
    <g id="Rectangle_784" data-name="Rectangle 784" transform="translate(1681 259)" fill="#fff" stroke="#707070" stroke-width="1">
      <rect width="8" height="8" rx="2" stroke="none"/>
      <rect x="0.5" y="0.5" width="7" height="7" rx="1.5" fill="none"/>
    </g>
    <line id="Line_354" data-name="Line 354" x2="160" transform="translate(1363 319.5)" fill="none" stroke="#c13e3e" stroke-width="3"/>
    <line id="Line_355" data-name="Line 355" x2="160" transform="translate(1363 379.5)" fill="none" stroke="#c13e3e" stroke-width="3"/>
    <line id="Line_356" data-name="Line 356" x2="160" transform="translate(236 319.5)" fill="none" stroke="#c13e3e" stroke-width="3"/>
    <line id="Line_357" data-name="Line 357" x2="160" transform="translate(397 319.5)" fill="none" stroke="#c13e3e" stroke-width="3"/>
    <rect id="Rectangle_812" data-name="Rectangle 812" width="16" height="40" rx="2" transform="translate(389 329.5)" fill="#c13e3e"/>
    <g id="Rectangle_813" data-name="Rectangle 813" transform="translate(393 315.5)" fill="#fff" stroke="#707070" stroke-width="1">
      <rect width="8" height="8" rx="2" stroke="none"/>
      <rect x="0.5" y="0.5" width="7" height="7" rx="1.5" fill="none"/>
    </g>
    <rect id="Rectangle_814" data-name="Rectangle 814" width="16" height="40" rx="2" transform="translate(228 329.5)" fill="#c13e3e"/>
    <g id="Rectangle_815" data-name="Rectangle 815" transform="translate(232 315.5)" fill="#fff" stroke="#707070" stroke-width="1">
      <rect width="8" height="8" rx="2" stroke="none"/>
      <rect x="0.5" y="0.5" width="7" height="7" rx="1.5" fill="none"/>
    </g>
    <text id="Novena" transform="translate(250 365.5)" fill="#a8a8a8" font-size="14" font-family="SegoeUI-Semibold, Segoe UI" font-weight="600"><tspan x="0" y="0">Novena</tspan></text>
    <text id="NS20" transform="translate(250 347.5)" font-size="20" font-family="SegoeUI-Semibold, Segoe UI" font-weight="600"><tspan x="0" y="0">NS20</tspan></text>
    <text id="Newton" transform="translate(411 365.5)" fill="#a8a8a8" font-size="14" font-family="SegoeUI-Semibold, Segoe UI" font-weight="600"><tspan x="0" y="0">Newton</tspan></text>
    <text id="NS21" transform="translate(411 347.5)" font-size="20" font-family="SegoeUI-Semibold, Segoe UI" font-weight="600"><tspan x="0" y="0">NS21</tspan></text>
    <line id="Line_358" data-name="Line 358" x2="160" transform="translate(558 319.5)" fill="none" stroke="#c13e3e" stroke-width="3"/>
    <rect id="Rectangle_816" data-name="Rectangle 816" width="16" height="40" rx="2" transform="translate(550 329.5)" fill="#c13e3e"/>
    <g id="Rectangle_817" data-name="Rectangle 817" transform="translate(554 315.5)" fill="#fff" stroke="#707070" stroke-width="1">
      <rect width="8" height="8" rx="2" stroke="none"/>
      <rect x="0.5" y="0.5" width="7" height="7" rx="1.5" fill="none"/>
    </g>
    <text id="Orchard" transform="translate(572 365.5)" fill="#a8a8a8" font-size="14" font-family="SegoeUI-Semibold, Segoe UI" font-weight="600"><tspan x="0" y="0">Orchard</tspan></text>
    <text id="NS22" transform="translate(572 347.5)" font-size="20" font-family="SegoeUI-Semibold, Segoe UI" font-weight="600"><tspan x="0" y="0">NS22</tspan></text>
    <line id="Line_359" data-name="Line 359" x2="160" transform="translate(719 319.5)" fill="none" stroke="#c13e3e" stroke-width="3"/>
    <rect id="Rectangle_818" data-name="Rectangle 818" width="16" height="40" rx="2" transform="translate(711 329.5)" fill="#c13e3e"/>
    <g id="Rectangle_819" data-name="Rectangle 819" transform="translate(715 315.5)" fill="#fff" stroke="#707070" stroke-width="1">
      <rect width="8" height="8" rx="2" stroke="none"/>
      <rect x="0.5" y="0.5" width="7" height="7" rx="1.5" fill="none"/>
    </g>
    <text id="Sommerset" transform="translate(733 365.5)" fill="#a8a8a8" font-size="14" font-family="SegoeUI-Semibold, Segoe UI" font-weight="600"><tspan x="0" y="0">Sommerset</tspan></text>
    <text id="NS23" transform="translate(733 347.5)" font-size="20" font-family="SegoeUI-Semibold, Segoe UI" font-weight="600"><tspan x="0" y="0">NS23</tspan></text>
    <line id="Line_360" data-name="Line 360" x2="160" transform="translate(880 319.5)" fill="none" stroke="#c13e3e" stroke-width="3"/>
    <rect id="Rectangle_820" data-name="Rectangle 820" width="16" height="40" rx="2" transform="translate(872 329.5)" fill="#c13e3e"/>
    <g id="Rectangle_821" data-name="Rectangle 821" transform="translate(876 315.5)" fill="#fff" stroke="#707070" stroke-width="1">
      <rect width="8" height="8" rx="2" stroke="none"/>
      <rect x="0.5" y="0.5" width="7" height="7" rx="1.5" fill="none"/>
    </g>
    <text id="Dhoby_Ghaut" data-name="Dhoby Ghaut" transform="translate(894 365.5)" fill="#a8a8a8" font-size="14" font-family="SegoeUI-Semibold, Segoe UI" font-weight="600"><tspan x="0" y="0">Dhoby Ghaut</tspan></text>
    <text id="NS24" transform="translate(894 347.5)" font-size="20" font-family="SegoeUI-Semibold, Segoe UI" font-weight="600"><tspan x="0" y="0">NS24</tspan></text>
    <line id="Line_361" data-name="Line 361" x2="160" transform="translate(1041 319.5)" fill="none" stroke="#c13e3e" stroke-width="3"/>
    <g id="Rectangle_822" data-name="Rectangle 822" transform="translate(1037 315.5)" fill="#fff" stroke="#707070" stroke-width="1">
      <rect width="8" height="8" rx="2" stroke="none"/>
      <rect x="0.5" y="0.5" width="7" height="7" rx="1.5" fill="none"/>
    </g>
    <rect id="Rectangle_823" data-name="Rectangle 823" width="16" height="40" rx="2" transform="translate(1033 329.5)" fill="#c13e3e"/>
    <text id="City_Hall" data-name="City Hall" transform="translate(1055 365.5)" fill="#a8a8a8" font-size="14" font-family="SegoeUI-Semibold, Segoe UI" font-weight="600"><tspan x="0" y="0">City Hall</tspan></text>
    <text id="NS25" transform="translate(1055 347.5)" font-size="20" font-family="SegoeUI-Semibold, Segoe UI" font-weight="600"><tspan x="0" y="0">NS25</tspan></text>
    <line id="Line_362" data-name="Line 362" x2="160" transform="translate(236 379.5)" fill="none" stroke="#707070" stroke-width="3"/>
    <line id="Line_363" data-name="Line 363" x2="160" transform="translate(397 379.5)" fill="none" stroke="#c13e3e" stroke-width="3"/>
    <g id="Rectangle_824" data-name="Rectangle 824" transform="translate(393 375.5)" fill="#fff" stroke="#707070" stroke-width="1">
      <rect width="8" height="8" rx="2" stroke="none"/>
      <rect x="0.5" y="0.5" width="7" height="7" rx="1.5" fill="none"/>
    </g>
    <g id="Rectangle_825" data-name="Rectangle 825" transform="translate(232 375.5)" fill="#fff" stroke="#707070" stroke-width="1">
      <rect width="8" height="8" rx="2" stroke="none"/>
      <rect x="0.5" y="0.5" width="7" height="7" rx="1.5" fill="none"/>
    </g>
    <line id="Line_364" data-name="Line 364" x2="160" transform="translate(558 379.5)" fill="none" stroke="#c13e3e" stroke-width="3"/>
    <g id="Rectangle_826" data-name="Rectangle 826" transform="translate(554 375.5)" fill="#fff" stroke="#707070" stroke-width="1">
      <rect width="8" height="8" rx="2" stroke="none"/>
      <rect x="0.5" y="0.5" width="7" height="7" rx="1.5" fill="none"/>
    </g>
    <line id="Line_365" data-name="Line 365" x2="160" transform="translate(719 379.5)" fill="none" stroke="#c13e3e" stroke-width="3"/>
    <g id="Rectangle_827" data-name="Rectangle 827" transform="translate(715 375.5)" fill="#fff" stroke="#707070" stroke-width="1">
      <rect width="8" height="8" rx="2" stroke="none"/>
      <rect x="0.5" y="0.5" width="7" height="7" rx="1.5" fill="none"/>
    </g>
    <line id="Line_366" data-name="Line 366" x2="160" transform="translate(880 379.5)" fill="none" stroke="#c13e3e" stroke-width="3"/>
    <g id="Rectangle_828" data-name="Rectangle 828" transform="translate(876 375.5)" fill="#fff" stroke="#707070" stroke-width="1">
      <rect width="8" height="8" rx="2" stroke="none"/>
      <rect x="0.5" y="0.5" width="7" height="7" rx="1.5" fill="none"/>
    </g>
    <line id="Line_367" data-name="Line 367" x2="160" transform="translate(1041 379.5)" fill="none" stroke="#c13e3e" stroke-width="3"/>
    <g id="Rectangle_829" data-name="Rectangle 829" transform="translate(1037 375.5)" fill="#fff" stroke="#707070" stroke-width="1">
      <rect width="8" height="8" rx="2" stroke="none"/>
      <rect x="0.5" y="0.5" width="7" height="7" rx="1.5" fill="none"/>
    </g>
    <line id="Line_368" data-name="Line 368" x2="160" transform="translate(1202 319.5)" fill="none" stroke="#c13e3e" stroke-width="3"/>
    <g id="Rectangle_830" data-name="Rectangle 830" transform="translate(1198 315.5)" fill="#fff" stroke="#707070" stroke-width="1">
      <rect width="8" height="8" rx="2" stroke="none"/>
      <rect x="0.5" y="0.5" width="7" height="7" rx="1.5" fill="none"/>
    </g>
    <rect id="Rectangle_831" data-name="Rectangle 831" width="16" height="40" rx="2" transform="translate(1194 329.5)" fill="#c13e3e"/>
    <text id="Raffles_Place" data-name="Raffles Place" transform="translate(1216 365.5)" fill="#a8a8a8" font-size="14" font-family="SegoeUI-Semibold, Segoe UI" font-weight="600"><tspan x="0" y="0">Raffles Place</tspan></text>
    <text id="NS26" transform="translate(1216 347.5)" font-size="20" font-family="SegoeUI-Semibold, Segoe UI" font-weight="600"><tspan x="0" y="0">NS26</tspan></text>
    <line id="Line_369" data-name="Line 369" x2="160" transform="translate(1202 379.5)" fill="none" stroke="#c13e3e" stroke-width="3"/>
    <g id="Rectangle_832" data-name="Rectangle 832" transform="translate(1198 375.5)" fill="#fff" stroke="#707070" stroke-width="1">
      <rect width="8" height="8" rx="2" stroke="none"/>
      <rect x="0.5" y="0.5" width="7" height="7" rx="1.5" fill="none"/>
    </g>
    <g id="Rectangle_833" data-name="Rectangle 833" transform="translate(1359 315.5)" fill="#fff" stroke="#707070" stroke-width="1">
      <rect width="8" height="8" rx="2" stroke="none"/>
      <rect x="0.5" y="0.5" width="7" height="7" rx="1.5" fill="none"/>
    </g>
    <rect id="Rectangle_834" data-name="Rectangle 834" width="16" height="40" rx="2" transform="translate(1355 329.5)" fill="#c13e3e"/>
    <text id="Marina_Bay" data-name="Marina Bay" transform="translate(1377 365.5)" fill="#a8a8a8" font-size="14" font-family="SegoeUI-Semibold, Segoe UI" font-weight="600"><tspan x="0" y="0">Marina Bay</tspan></text>
    <text id="NS27" transform="translate(1377 347.5)" font-size="20" font-family="SegoeUI-Semibold, Segoe UI" font-weight="600"><tspan x="0" y="0">NS27</tspan></text>
    <g id="Rectangle_835" data-name="Rectangle 835" transform="translate(1359 375.5)" fill="#fff" stroke="#707070" stroke-width="1">
      <rect width="8" height="8" rx="2" stroke="none"/>
      <rect x="0.5" y="0.5" width="7" height="7" rx="1.5" fill="none"/>
    </g>
    <line id="Line_370" data-name="Line 370" x2="60" transform="translate(1524 319.5)" fill="none" stroke="#c13e3e" stroke-width="3"/>
    <line id="Line_371" data-name="Line 371" x2="60" transform="translate(1524 379.5)" fill="none" stroke="#c13e3e" stroke-width="3"/>
    <g id="Rectangle_836" data-name="Rectangle 836" transform="translate(1520 315.5)" fill="#fff" stroke="#707070" stroke-width="1">
      <rect width="8" height="8" rx="2" stroke="none"/>
      <rect x="0.5" y="0.5" width="7" height="7" rx="1.5" fill="none"/>
    </g>
    <rect id="Rectangle_837" data-name="Rectangle 837" width="16" height="40" rx="2" transform="translate(1516 329.5)" fill="#c13e3e"/>
    <text id="Marina_South_Pier" data-name="Marina South Pier" transform="translate(1538 365.5)" fill="#a8a8a8" font-size="14" font-family="SegoeUI-Semibold, Segoe UI" font-weight="600"><tspan x="0" y="0">Marina South Pier</tspan></text>
    <text id="NS28" transform="translate(1538 347.5)" font-size="20" font-family="SegoeUI-Semibold, Segoe UI" font-weight="600"><tspan x="0" y="0">NS28</tspan></text>
    <g id="Rectangle_838" data-name="Rectangle 838" transform="translate(1520 375.5)" fill="#fff" stroke="#707070" stroke-width="1">
      <rect width="8" height="8" rx="2" stroke="none"/>
      <rect x="0.5" y="0.5" width="7" height="7" rx="1.5" fill="none"/>
    </g>
    <rect id="Rectangle_855" data-name="Rectangle 855" width="1" height="2" transform="translate(250.999 82.002)" fill="#e7f37a"/>
    <rect id="Rectangle_856" data-name="Rectangle 856" width="1" height="2" transform="translate(250.999 88.002)" fill="#e7f37a"/>
  </g>
</svg>
